# xmcd CD database file
#
# Track frame offsets:
#	150
#	23237
#	44139
#	66234
#	86245
#	104437
#	127300
#	144768
#	170245
#	193672
#
# Disc length: 2867 seconds
#
# Revision: 0
# Processed by: cddbd v1.5.2PL0 Copyright (c) Steve Scherf et al.
# Submitted via: CDex 1.70beta2
#
DISCID=9c0b310a
DTITLE=Don Grusin - Banana Fish
DYEAR=1900
DGENRE=Jazz
TTITLE0=Pacific Lights
TTITLE1=Baby's Comin' Home Tonight
TTITLE2=Banana Fish
TTITLE3=Green Diamonds
TTITLE4=Island Cowboy
TTITLE5=Beach Dogs
TTITLE6=Goodbye
TTITLE7=Home On The Range
TTITLE8=Deep Water
TTITLE9=Betty's Jetty
EXTD=
EXTT0=
EXTT1=
EXTT2=
EXTT3=
EXTT4=
EXTT5=
EXTT6=
EXTT7=
EXTT8=
EXTT9=
PLAYORDER=
